<svg xmlns="http://www.w3.org/2000/svg" viewBox="0 0 1200 1200" role="img" aria-labelledby="title desc">
<title id="title">LabTrack powered by Luntian</title>
<desc id="desc">LabTrack laboratory inventory branding with a flask and leaf</desc>
<rect width="1200" height="1200" rx="180" fill="#F6F7F3"/>
<g transform="translate(344 120) scale(1)">
  <rect width="512" height="512" rx="118" fill="#1F6F78"/>
  <path d="M203 106h106M225 106v92l-92 160c-15 27 4 60 35 60h176c31 0 50-33 35-60l-92-160v-92" fill="none" stroke="white" stroke-width="28" stroke-linecap="round" stroke-linejoin="round"/>
  <path d="M164 340c36-47 77-53 118-37 31 13 55 13 83-1l31 55c12 21-3 47-28 47H167c-25 0-40-27-27-49z" fill="#66B36E"/>
  <path d="M278 270c17-43 54-67 100-65-4 46-31 78-75 91-13 4-27-2-32-14-3-5-1-9 7-12z" fill="white"/>
  <path d="M290 283c24-24 49-42 78-58" fill="none" stroke="#1F6F78" stroke-width="10" stroke-linecap="round"/>
</g>
<text x="600" y="790" text-anchor="middle" font-family="Inter, Arial, sans-serif" font-size="130" font-weight="750" letter-spacing="-5" fill="#1E2A28">LabTrack</text>
<text x="600" y="875" text-anchor="middle" font-family="Inter, Arial, sans-serif" font-size="42" font-weight="500" letter-spacing="1" fill="#5B6B66">powered by</text>
<text x="600" y="945" text-anchor="middle" font-family="Inter, Arial, sans-serif" font-size="68" font-weight="750" letter-spacing="1" fill="#66B36E">Luntian</text>
</svg>